<?xml version="1.0" encoding="UTF-8" standalone="no"?>
<svg
   id="logo_OSI"
   width="112.36579"
   height="147.36302"
   version="1.2"
   viewBox="0 0 84.274346 110.52227"
   sodipodi:docname="osi_logo.svg"
   inkscape:version="1.3.2 (091e20e, 2023-11-25)"
   xmlns:inkscape="http://www.inkscape.org/namespaces/inkscape"
   xmlns:sodipodi="http://sodipodi.sourceforge.net/DTD/sodipodi-0.dtd"
   xmlns="http://www.w3.org/2000/svg"
   xmlns:svg="http://www.w3.org/2000/svg"
   xmlns:rdf="http://www.w3.org/1999/02/22-rdf-syntax-ns#"
   xmlns:cc="http://creativecommons.org/ns#"
   xmlns:dc="http://purl.org/dc/elements/1.1/">
  <defs
     id="defs1" />
  <sodipodi:namedview
     id="namedview1"
     pagecolor="#ffffff"
     bordercolor="#000000"
     borderopacity="0.25"
     inkscape:showpageshadow="2"
     inkscape:pageopacity="0.0"
     inkscape:pagecheckerboard="0"
     inkscape:deskcolor="#d1d1d1"
     inkscape:document-units="pt"
     inkscape:zoom="0.28826766"
     inkscape:cx="-256.70587"
     inkscape:cy="-284.45786"
     inkscape:window-width="1312"
     inkscape:window-height="449"
     inkscape:window-x="0"
     inkscape:window-y="38"
     inkscape:window-maximized="0"
     inkscape:current-layer="logo_OSI" />
  <metadata
     id="metadata1">
    <rdf:RDF>
      <cc:Work
         rdf:about="">
        <dc:format>image/svg+xml</dc:format>
        <dc:type
           rdf:resource="http://purl.org/dc/dcmitype/StillImage" />
      </cc:Work>
    </rdf:RDF>
  </metadata>
  <path
     id="shape"
     d="m 47.161089,55.28202 c 5.80641,-2.15649 8.83758,-6.30915 8.83758,-13.45641 0,-7.147275 -6.02298,-13.44516 -13.548525,-13.45782 -7.941795,-0.012 -13.93242,6.284535 -13.836795,13.45782 0.09555,7.173285 3.517035,11.945385 8.992275,13.67085 L 27.906009,79.35912 C 14.924215,75.99819 1.7209293,60.683415 1.7209293,41.82561 c 0,-22.335465 17.9465547,-40.44234 40.4409297,-40.44234 22.49439,0 40.729215,18.10686 40.729215,40.44234 0,19.15101 -13.078125,34.25274 -26.336955,37.600305 z m 0,0"
     style="fill:#3da638;stroke:#1c511c;stroke-width:2.76654;stroke-linecap:round;stroke-linejoin:round" />
  <g
     id="text"
     transform="matrix(0.19492632,0,0,0.20680992,-9.9960657,-29.325315)"
     style="fill:#000000;stroke-width:0.75px">
    <path
       id="o1"
       d="m 91.04297,583.3072 q 0,9.77344 -5.273438,15.25781 -5.238281,5.44922 -14.69531,5.44922 -9.070313,0 -14.44922,-5.58984 -5.34375,-5.58985 -5.34375,-15.11719 0,-9.73828 5.238281,-15.11719 5.273438,-5.41406 14.76562,-5.41406 5.871094,0 10.37109,2.49609 4.5,2.4961 6.925781,7.17188 2.460938,4.64062 2.460938,10.86328 z m -25.80469,0 q 0,5.13281 1.371094,7.83984 1.371094,2.67188 4.605469,2.67188 3.199218,0 4.5,-2.67188 1.335937,-2.70703 1.335937,-7.83984 0,-5.09766 -1.335937,-7.69922 -1.335938,-2.60156 -4.570313,-2.60156 -3.164062,0 -4.535156,2.60156 -1.371094,2.56641 -1.371094,7.69922 z"
       style="font-variant-ligatures:normal;font-variant-caps:normal;font-variant-numeric:normal;font-feature-settings:normal" />
    <path
       id="p"
       d="m 122.7539,604.0143 q -3.02344,0 -5.41407,-0.98437 -2.39062,-1.01953 -4.74609,-3.6211 h -0.63281 q 0.63281,4.1836 0.63281,5.20313 v 15.99609 H 98.84765 v -57.1289 h 11.17968 l 1.9336,5.0625 h 0.63281 q 3.83203,-5.76563 10.58203,-5.76563 6.60938,0 10.37109,5.48438 3.76172,5.48437 3.76172,15.04687 0,9.63281 -3.9375,15.1875 -3.90234,5.51953 -10.61718,5.51953 z m -4.60547,-30.44531 q -3.02344,0 -4.25391,2.17969 -1.19531,2.14453 -1.30078,6.39843 v 1.08985 q 0,5.13281 1.37109,7.41797 1.3711,2.28515 4.32422,2.28515 2.63672,0 3.83203,-2.25 1.19532,-2.28515 1.19532,-7.52343 0,-5.13282 -1.19532,-7.34766 -1.19531,-2.25 -3.97265,-2.25 z"
       style="font-variant-ligatures:normal;font-variant-caps:normal;font-variant-numeric:normal;font-feature-settings:normal" />
    <path
       id="e1"
       d="m 164.3438,604.0143 q -9.94922,0 -15.46875,-5.27344 -5.48438,-5.30859 -5.48438,-15.08203 0,-10.08984 5.09766,-15.46875 5.09766,-5.41406 14.55469,-5.41406 9,0 13.88672,4.71094 4.92187,4.67578 4.92187,13.5 v 6.11719 h -24.57422 q 0.14063,3.33984 2.42578,5.23828 2.32032,1.89843 6.29297,1.89843 3.6211,0 6.64453,-0.66796 3.0586,-0.70313 6.60938,-2.35547 v 9.8789 q -3.23438,1.65235 -6.67969,2.28516 -3.44531,0.63281 -8.22656,0.63281 z m -0.80859,-31.88672 q -2.42579,0 -4.07813,1.54688 -1.61719,1.51172 -1.89844,4.78125 h 11.8125 q -0.0703,-2.88281 -1.65234,-4.60547 -1.54688,-1.72266 -4.18359,-1.72266 z"
       style="font-variant-ligatures:normal;font-variant-caps:normal;font-variant-numeric:normal;font-feature-settings:normal" />
    <path
       id="n1"
       d="m 214.8281,603.3112 v -21.72657 q 0,-3.97265 -1.16015,-5.97656 -1.125,-2.03906 -3.65625,-2.03906 -3.48047,0 -5.02735,2.77734 -1.54687,2.77735 -1.54687,9.52735 v 17.4375 h -13.74609 v -39.83203 h 10.37109 l 1.72266,4.92187 h 0.80859 q 1.75781,-2.8125 4.85156,-4.21875 3.12891,-1.40625 7.17188,-1.40625 6.60937,0 10.26562,3.83203 3.69141,3.83203 3.69141,10.79297 v 25.91016 z"
       style="font-variant-ligatures:normal;font-variant-caps:normal;font-variant-numeric:normal;font-feature-settings:normal" />
    <path
       id="s"
       d="m 283.9102,592.2369 q 0,5.69531 -4.14844,8.7539 -4.14844,3.02344 -11.88281,3.02344 -7.76954,0 -12.48047,-2.35547 v -7.13672 q 6.85547,3.16407 12.76172,3.16407 7.6289,0 7.6289,-4.60547 0,-1.47656 -0.84375,-2.46094 -0.84375,-0.98437 -2.77734,-2.03906 -1.9336,-1.05469 -5.37891,-2.39063 -6.71484,-2.60156 -9.10547,-5.20312 -2.35547,-2.60156 -2.35547,-6.75 0,-4.99219 4.00782,-7.73438 4.04297,-2.77734 10.96875,-2.77734 6.85547,0 12.97265,2.77734 l -2.67187,6.22266 q -6.29297,-2.60156 -10.58203,-2.60156 -6.53907,0 -6.53907,3.72656 0,1.82812 1.6875,3.09375 1.72266,1.26562 7.45313,3.48047 4.81641,1.86328 6.99609,3.41015 2.17969,1.54688 3.23438,3.58594 1.05469,2.00391 1.05469,4.81641 z"
       style="font-variant-ligatures:normal;font-variant-caps:normal;font-variant-numeric:normal;font-feature-settings:normal" />
    <path
       id="o2"
       d="m 327.293,583.7994 q 0,9.52734 -4.88672,14.87109 -4.88672,5.34375 -13.60547,5.34375 -5.44922,0 -9.63281,-2.46094 -4.1836,-2.46093 -6.4336,-7.0664 -2.25,-4.60547 -2.25,-10.6875 0,-9.45703 4.85157,-14.76563 4.85156,-5.30859 13.67578,-5.30859 8.4375,0 13.35937,5.44922 4.92188,5.41406 4.92188,14.625 z m -28.30078,0 q 0,13.46484 9.94922,13.46484 9.84375,0 9.84375,-13.46484 0,-13.32422 -9.91407,-13.32422 -5.20312,0 -7.55859,3.44531 -2.32031,3.44531 -2.32031,9.87891 z"
       style="font-variant-ligatures:normal;font-variant-caps:normal;font-variant-numeric:normal;font-feature-settings:normal" />
    <path
       id="u"
       d="m 364.2422,603.3112 -1.16016,-5.09766 h -0.42187 q -1.72266,2.70703 -4.92188,4.25391 -3.16406,1.54687 -7.24219,1.54687 -7.0664,0 -10.54687,-3.51562 -3.48047,-3.51563 -3.48047,-10.65235 v -25.41797 h 8.33203 v 23.97657 q 0,4.46484 1.82813,6.71484 1.82812,2.21484 5.73046,2.21484 5.20313,0 7.62891,-3.09375 2.46094,-3.1289 2.46094,-10.4414 v -19.3711 h 8.29687 v 38.88282 z"
       style="font-variant-ligatures:normal;font-variant-caps:normal;font-variant-numeric:normal;font-feature-settings:normal" />
    <path
       id="r"
       d="m 402.2461,563.7252 q 2.4961,0 4.11328,0.35156 l -0.80859,7.69922 q -1.75781,-0.42187 -3.65625,-0.42187 -4.95703,0 -8.05078,3.23437 -3.05859,3.23438 -3.05859,8.40234 v 20.32032 h -8.26172 v -38.88282 h 6.46875 l 1.08984,6.85547 h 0.42188 q 1.93359,-3.48047 5.02734,-5.51953 3.12891,-2.03906 6.71484,-2.03906 z"
       style="font-variant-ligatures:normal;font-variant-caps:normal;font-variant-numeric:normal;font-feature-settings:normal" />
    <path
       id="c"
       d="m 429.2812,604.0143 q -8.82422,0 -13.42969,-5.13281 -4.57031,-5.16797 -4.57031,-14.80078 0,-9.8086 4.78125,-15.08203 4.81641,-5.27344 13.88672,-5.27344 6.15234,0 11.07422,2.28516 l -2.4961,6.64453 q -5.23828,-2.03907 -8.64843,-2.03907 -10.08985,0 -10.08985,13.39454 0,6.53906 2.4961,9.84375 2.53125,3.26953 7.38281,3.26953 5.51953,0 10.4414,-2.74219 v 7.20703 q -2.21484,1.30078 -4.74609,1.86328 -2.49609,0.5625 -6.08203,0.5625 z"
       style="font-variant-ligatures:normal;font-variant-caps:normal;font-variant-numeric:normal;font-feature-settings:normal" />
    <path
       id="e2"
       d="m 466.3008,604.0143 q -9.07031,0 -14.20312,-5.27344 -5.09766,-5.30859 -5.09766,-14.58984 0,-9.52734 4.74609,-14.97656 4.7461,-5.44922 13.04297,-5.44922 7.69922,0 12.16406,4.67578 4.46485,4.67578 4.46485,12.86719 v 4.46484 h -25.91016 q 0.17578,5.66016 3.0586,8.71875 2.88281,3.02344 8.12109,3.02344 3.44531,0 6.39844,-0.63281 2.98828,-0.66797 6.39843,-2.17969 v 6.71484 q -3.02343,1.44141 -6.11718,2.03907 -3.09375,0.59765 -7.06641,0.59765 z m -1.51172,-34.03125 q -3.9375,0 -6.32812,2.4961 -2.35547,2.49609 -2.8125,7.27734 h 17.64843 q -0.0703,-4.81641 -2.32031,-7.27734 -2.25,-2.4961 -6.1875,-2.4961 z"
       style="font-variant-ligatures:normal;font-variant-caps:normal;font-variant-numeric:normal;font-feature-settings:normal" />
    <path
       id="i1"
       d="m 128.5195,675.51 h -8.26172 v -38.88281 h 8.26172 z m -8.7539,-49.18359 q 0,-2.21485 1.19531,-3.41016 1.23047,-1.19531 3.48047,-1.19531 2.17968,0 3.375,1.19531 1.23046,1.19531 1.23046,3.41016 0,2.10937 -1.23046,3.33984 -1.19532,1.19531 -3.375,1.19531 -2.25,0 -3.48047,-1.19531 -1.19531,-1.23047 -1.19531,-3.33984 z"
       style="font-variant-ligatures:normal;font-variant-caps:normal;font-variant-numeric:normal;font-feature-settings:normal;stroke-width:0.75px" />
    <path
       id="n2"
       d="m 174.5742,675.51 h -8.29688 v -23.90625 q 0,-4.5 -1.82812,-6.71484 -1.79297,-2.21485 -5.73047,-2.21485 -5.23828,0 -7.66406,3.09375 -2.42578,3.09375 -2.42578,10.3711 V 675.51 h -8.26172 v -38.88281 h 6.46875 l 1.16015,5.09765 h 0.42188 q 1.75781,-2.77734 4.99219,-4.28906 3.23437,-1.51172 7.17187,-1.51172 13.99219,0 13.99219,14.23828 z"
       style="font-variant-ligatures:normal;font-variant-caps:normal;font-variant-numeric:normal;font-feature-settings:normal;stroke-width:0.75px" />
    <path
       id="i2"
       d="m 194.332,675.51 h -8.26172 v -38.88281 h 8.26172 z m -8.75391,-49.18359 q 0,-2.21485 1.19532,-3.41016 1.23047,-1.19531 3.48047,-1.19531 2.17968,0 3.375,1.19531 1.23046,1.19531 1.23046,3.41016 0,2.10937 -1.23046,3.33984 -1.19532,1.19531 -3.375,1.19531 -2.25,0 -3.48047,-1.19531 -1.19532,-1.23047 -1.19532,-3.33984 z"
       style="font-variant-ligatures:normal;font-variant-caps:normal;font-variant-numeric:normal;font-feature-settings:normal;stroke-width:0.75px" />
    <path
       id="t1"
       d="m 220.6641,669.5334 q 3.02344,0 6.04688,-0.94922 v 6.22265 q -1.3711,0.59766 -3.55078,0.98438 -2.14454,0.42187 -4.46485,0.42187 -11.74219,0 -11.74219,-12.375 v -20.95312 h -5.30859 v -3.65625 l 5.69531,-3.02344 2.8125,-8.22656 h 5.09766 v 8.64844 h 11.07422 v 6.25781 h -11.07422 v 20.8125 q 0,2.98828 1.47656,4.42969 1.51172,1.40625 3.9375,1.40625 z"
       style="font-variant-ligatures:normal;font-variant-caps:normal;font-variant-numeric:normal;font-feature-settings:normal;stroke-width:0.75px" />
    <path
       id="i3"
       d="m 242.707,675.51 h -8.26172 v -38.88281 h 8.26172 z m -8.75391,-49.18359 q 0,-2.21485 1.19532,-3.41016 1.23047,-1.19531 3.48047,-1.19531 2.17968,0 3.375,1.19531 1.23046,1.19531 1.23046,3.41016 0,2.10937 -1.23046,3.33984 -1.19532,1.19531 -3.375,1.19531 -2.25,0 -3.48047,-1.19531 -1.19532,-1.23047 -1.19532,-3.33984 z"
       style="font-variant-ligatures:normal;font-variant-caps:normal;font-variant-numeric:normal;font-feature-settings:normal;stroke-width:0.75px" />
    <path
       id="a"
       d="m 278.8828,675.51 -1.65234,-5.41406 h -0.28125 q -2.8125,3.55078 -5.66016,4.85156 -2.84765,1.26562 -7.3125,1.26562 -5.73047,0 -8.96484,-3.09375 -3.19922,-3.09375 -3.19922,-8.7539 0,-6.01172 4.46484,-9.07031 4.46485,-3.0586 13.60547,-3.33985 l 6.71485,-0.21094 v -2.07421 q 0,-3.72657 -1.75782,-5.55469 -1.72265,-1.86328 -5.3789,-1.86328 -2.98828,0 -5.73047,0.8789 -2.74219,0.87891 -5.27344,2.07422 l -2.67187,-5.90625 q 3.16406,-1.65234 6.92578,-2.49609 3.76172,-0.87891 7.10156,-0.87891 7.41797,0 11.17969,3.23438 3.79687,3.23437 3.79687,10.16015 V 675.51 Z m -12.30469,-5.625 q 4.5,0 7.20704,-2.49609 2.74218,-2.53125 2.74218,-7.06641 v -3.375 l -4.99218,0.21094 q -5.83594,0.21093 -8.50782,1.96875 -2.63672,1.72265 -2.63672,5.30859 0,2.60156 1.54688,4.04297 1.54687,1.40625 4.64062,1.40625 z"
       style="font-variant-ligatures:normal;font-variant-caps:normal;font-variant-numeric:normal;font-feature-settings:normal;stroke-width:0.75px" />
    <path
       id="t2"
       d="m 310.8047,669.5334 q 3.02343,0 6.04687,-0.94922 v 6.22265 q -1.37109,0.59766 -3.55078,0.98438 -2.14453,0.42187 -4.46484,0.42187 -11.74219,0 -11.74219,-12.375 v -20.95312 h -5.30859 v -3.65625 l 5.69531,-3.02344 2.8125,-8.22656 h 5.09765 v 8.64844 h 11.07422 v 6.25781 h -11.07422 v 20.8125 q 0,2.98828 1.47657,4.42969 1.51172,1.40625 3.9375,1.40625 z"
       style="font-variant-ligatures:normal;font-variant-caps:normal;font-variant-numeric:normal;font-feature-settings:normal;stroke-width:0.75px" />
    <path
       id="i4"
       d="m 332.8477,675.51 h -8.26172 v -38.88281 h 8.26172 z m -8.75391,-49.18359 q 0,-2.21485 1.19531,-3.41016 1.23047,-1.19531 3.48047,-1.19531 2.17969,0 3.375,1.19531 1.23047,1.19531 1.23047,3.41016 0,2.10937 -1.23047,3.33984 -1.19531,1.19531 -3.375,1.19531 -2.25,0 -3.48047,-1.19531 -1.19531,-1.23047 -1.19531,-3.33984 z"
       style="font-variant-ligatures:normal;font-variant-caps:normal;font-variant-numeric:normal;font-feature-settings:normal;stroke-width:0.75px" />
    <path
       id="v"
       d="m 353.5547,675.51 -14.76563,-38.88281 h 8.71875 l 7.91016,22.60547 q 2.03906,5.69531 2.46094,9.21093 h 0.28125 q 0.3164,-2.53125 2.46093,-9.21093 l 7.91016,-22.60547 h 8.78906 L 362.48438,675.51 Z"
       style="font-variant-ligatures:normal;font-variant-caps:normal;font-variant-numeric:normal;font-feature-settings:normal;stroke-width:0.75px" />
    <path
       id="e3"
       d="m 400.207,676.2131 q -9.07031,0 -14.20312,-5.27343 -5.09766,-5.3086 -5.09766,-14.58985 0,-9.52734 4.74609,-14.97656 4.7461,-5.44922 13.04297,-5.44922 7.69922,0 12.16406,4.67578 4.46485,4.67578 4.46485,12.86719 v 4.46484 h -25.91016 q 0.17578,5.66016 3.0586,8.71875 2.88281,3.02344 8.12109,3.02344 3.44531,0 6.39844,-0.63281 2.98828,-0.66797 6.39843,-2.17969 v 6.71485 q -3.02343,1.4414 -6.11718,2.03906 -3.09375,0.59765 -7.06641,0.59765 z m -1.51172,-34.03125 q -3.9375,0 -6.32812,2.4961 -2.35547,2.49609 -2.8125,7.27734 h 17.64843 q -0.0703,-4.8164 -2.32031,-7.27734 -2.25,-2.4961 -6.1875,-2.4961 z"
       style="font-variant-ligatures:normal;font-variant-caps:normal;font-variant-numeric:normal;font-feature-settings:normal;stroke-width:0.75px" />
    <path
       id="registered_tm"
       d="m 431.7151,631.1344 h 1.75306 q 1.29857,0 2.07771,-0.62727 0.79537,-0.64258 0.79537,-1.62174 0,-1.14745 -0.69798,-1.63703 -0.69798,-0.50488 -2.20756,-0.50488 h -1.7206 z m 7.04472,-2.31021 q 0,1.22395 -0.69798,2.17252 -0.68174,0.93326 -1.93162,1.39224 l 3.86324,6.04325 h -2.72699 l -3.36004,-5.41597 h -2.19133 v 5.41597 h -2.40235 v -13.63174 h 4.23657 q 2.69453,0 3.9444,0.99446 1.2661,0.99446 1.2661,3.02927 z m -17.15731,2.78449 q 0,-3.05987 1.62321,-5.73727 1.6232,-2.67739 4.46382,-4.22262 2.84061,-1.54524 6.1195,-1.54524 3.24641,0 6.08703,1.52994 2.84061,1.52994 4.48005,4.20733 1.63945,2.67739 1.63945,5.76786 0,3.01398 -1.57452,5.66077 -1.57451,2.64679 -4.41512,4.23793 -2.84062,1.59113 -6.21689,1.59113 -3.36005,0 -6.20066,-1.57583 -2.84062,-1.59114 -4.43136,-4.23793 -1.57451,-2.64679 -1.57451,-5.67607 z m 1.70437,0 q 0,2.64679 1.41219,4.957 1.41219,2.2949 3.847,3.62595 2.45105,1.31575 5.24297,1.31575 2.82438,0 5.24296,-1.33105 2.41858,-1.33105 3.83077,-3.59535 1.42843,-2.27961 1.42843,-4.9723 0,-2.66209 -1.4122,-4.9417 -1.41219,-2.2796 -3.83077,-3.61065 -2.40235,-1.34635 -5.25919,-1.34635 -2.82439,0 -5.24297,1.33105 -2.41858,1.33105 -3.847,3.61066 -1.41219,2.2643 -1.41219,4.95699 z"
       style="font-variant-ligatures:normal;font-variant-caps:normal;font-variant-numeric:normal;font-feature-settings:normal;fill:#000000" />
  </g>
</svg>
