<?xml version="1.0" encoding="UTF-8" standalone="no"?>
<svg
   xml:space="preserve"
   height="74.28997"
   viewBox="0 0 204.00211 74.29046"
   width="204.00211"
   version="1.1"
   id="svg9"
   sodipodi:docname="Unity_Technologies_logo.svg"
   inkscape:version="1.3.2 (091e20e, 2023-11-25)"
   xmlns:inkscape="http://www.inkscape.org/namespaces/inkscape"
   xmlns:sodipodi="http://sodipodi.sourceforge.net/DTD/sodipodi-0.dtd"
   xmlns="http://www.w3.org/2000/svg"
   xmlns:svg="http://www.w3.org/2000/svg"><sodipodi:namedview
     id="namedview9"
     pagecolor="#ffffff"
     bordercolor="#000000"
     borderopacity="0.25"
     inkscape:showpageshadow="2"
     inkscape:pageopacity="0.0"
     inkscape:pagecheckerboard="0"
     inkscape:deskcolor="#d1d1d1"
     inkscape:zoom="2.1601831"
     inkscape:cx="101.84322"
     inkscape:cy="37.033898"
     inkscape:window-width="1312"
     inkscape:window-height="449"
     inkscape:window-x="0"
     inkscape:window-y="38"
     inkscape:window-maximized="0"
     inkscape:current-layer="svg9" /><defs
     id="defs1"><clipPath
       id="a"
       clipPathUnits="userSpaceOnUse"><path
         d="M 0,0 H 2467.7 V 3078.5 H 0 Z"
         id="path1" /></clipPath></defs><g
     transform="matrix(0.85,0,0,-0.85,-49.623225,298.2583)"
     id="g9"><g
       transform="matrix(0.19707,0,0,0.19707,-56.668,-255.78)"
       id="g8"><g
         fill="#222c37"
         clip-path="url(#a)"
         id="g7"><path
           d="m 1263.9,2944.2 h -42.52 v -98.34 c 0,-25.32 -10.39,-45.44 -40.9,-45.44 -30.18,-0.33 -38.94,20.44 -38.94,46.73 v 97.05 h -42.52 v -107.76 c 0,-31.15 11.03,-75.62 69.46,-75.95 32.13,-0.32 48.03,15.26 55.5,29.21 v -23.69 h 39.92 v 178.19"
           id="path2" /><path
           d="m 1280.8,2766 h 42.52 v 98.35 c 0,24.99 10.38,45.11 40.57,45.44 29.86,0 38.62,-20.45 38.62,-47.06 V 2766 h 42.52 v 107.44 c 0,31.48 -11.03,75.95 -69.13,76.27 -31.81,0.32 -47.72,-15.25 -55.5,-29.21 0.32,8.44 0.32,15.9 0.32,23.69 H 1280.8 V 2766"
           id="path3" /><path
           d="m 1461.3,2766 h 42.52 v 178.19 h -42.52 z m 0,202.21 h 42.52 v 37.98 h -42.52 v -37.98"
           id="path4" /><path
           d="m 1548.3,2766 h 42.52 v 145.41 h 30.51 l -12.62,32.78 h -17.89 v 62 h -42.52 v -62 h -29.54 v -32.78 h 29.54 V 2766"
           id="path5" /><path
           d="m 1662.4,2703.7 h 45.44 l 93.81,240.51 h -45.44 l -42.85,-118.47 -43.49,118.47 h -45.44 l 67.18,-171.37 -29.21,-69.14"
           id="path6" /><path
           d="m 865.9,2856.7 77.609,134.02 37.504,-134.02 -37.504,-133.99 z m -37.829,-21.76 77.622,-134 -135.18,34.63 -97.668,99.37 h 155.23 z m 77.606,177.56 -77.606,-134.02 h -155.23 l 97.668,99.37 135.17,34.65 z m 110.8,-110.19 -47.353,176.15 -176.73,-47.21 -26.161,-45.99 -53.085,0.38 -129.36,-128.95 129.36,-128.92 h 0.003 l 53.063,0.39 26.199,-45.99 176.71,-47.21 47.353,176.13 -26.892,45.61 26.892,45.61"
           id="path7" /></g></g></g></svg>
