<?xml version="1.0" encoding="UTF-8" standalone="no"?>
<svg xmlns:rdf="http://www.w3.org/1999/02/22-rdf-syntax-ns#" xmlns="http://www.w3.org/2000/svg" xml:space="preserve" height="109.25" viewBox="0 0 300 109.25072" width="300" version="1.1" xmlns:cc="http://creativecommons.org/ns#" xmlns:dc="http://purl.org/dc/elements/1.1/"><defs><clipPath id="a" clipPathUnits="userSpaceOnUse"><path d="m0 0h2467.7v3078.5h-2467.7v-3078.5z"/></clipPath></defs><g transform="matrix(1.25 0 0 -1.25 -72.974 438.62)"><g transform="matrix(.19707 0 0 .19707 -56.668 -255.78)"><g fill="#222c37" clip-path="url(#a)"><path d="m1263.9 2944.2h-42.52v-98.34c0-25.32-10.39-45.44-40.9-45.44-30.18-0.33-38.94 20.44-38.94 46.73v97.05h-42.52v-107.76c0-31.15 11.03-75.62 69.46-75.95 32.13-0.32 48.03 15.26 55.5 29.21v-23.69h39.92v178.19"/><path d="m1280.8 2766h42.52v98.35c0 24.99 10.38 45.11 40.57 45.44 29.86 0 38.62-20.45 38.62-47.06v-96.73h42.52v107.44c0 31.48-11.03 75.95-69.13 76.27-31.81 0.32-47.72-15.25-55.5-29.21 0.32 8.44 0.32 15.9 0.32 23.69h-39.92v-178.19"/><path d="m1461.3 2766h42.52v178.19h-42.52v-178.19zm0 202.21h42.52v37.98h-42.52v-37.98"/><path d="m1548.3 2766h42.52v145.41h30.51l-12.62 32.78h-17.89v62h-42.52v-62h-29.54v-32.78h29.54v-145.41"/><path d="m1662.4 2703.7h45.44l93.81 240.51h-45.44l-42.85-118.47-43.49 118.47h-45.44l67.18-171.37-29.21-69.14"/><path d="m865.9 2856.7 77.609 134.02 37.504-134.02-37.504-133.99-77.609 133.99zm-37.829-21.76 77.622-134-135.18 34.63-97.668 99.37h155.23zm77.606 177.56-77.606-134.02h-155.23l97.668 99.37 135.17 34.65zm110.8-110.19-47.353 176.15-176.73-47.21-26.161-45.99-53.085 0.38-129.36-128.95 129.36-128.92h0.003l53.063 0.39 26.199-45.99 176.71-47.21 47.353 176.13-26.892 45.61 26.892 45.61"/></g></g></g></svg>
